<svg width="113" height="24" viewBox="0 0 113 24" fill="none" xmlns="http://www.w3.org/2000/svg">
<path d="M7.195 12.5227H10.8768L12.2064 14.1932L14.4564 16.75L17.3882 20.2955H13.195L11.1155 17.875L9.71773 15.8636L7.195 12.5227ZM17.3541 10.2727C17.3541 12.2159 16.9763 13.8551 16.2206 15.1903C15.4649 16.5199 14.445 17.5284 13.1609 18.2159C11.8768 18.8977 10.445 19.2386 8.86545 19.2386C7.27455 19.2386 5.83705 18.8949 4.55295 18.2074C3.27455 17.5142 2.2575 16.5028 1.50182 15.1733C0.751818 13.8381 0.376818 12.2045 0.376818 10.2727C0.376818 8.32955 0.751818 6.69318 1.50182 5.36364C2.2575 4.02841 3.27455 3.01989 4.55295 2.33807C5.83705 1.65057 7.27455 1.30682 8.86545 1.30682C10.445 1.30682 11.8768 1.65057 13.1609 2.33807C14.445 3.01989 15.4649 4.02841 16.2206 5.36364C16.9763 6.69318 17.3541 8.32955 17.3541 10.2727ZM12.4791 10.2727C12.4791 9.22727 12.3399 8.34659 12.0615 7.63068C11.7887 6.90909 11.3825 6.36364 10.8427 5.99432C10.3086 5.61932 9.64955 5.43182 8.86545 5.43182C8.08136 5.43182 7.41943 5.61932 6.87966 5.99432C6.34557 6.36364 5.93932 6.90909 5.66091 7.63068C5.38818 8.34659 5.25182 9.22727 5.25182 10.2727C5.25182 11.3182 5.38818 12.2017 5.66091 12.9233C5.93932 13.6392 6.34557 14.1847 6.87966 14.5597C7.41943 14.929 8.08136 15.1136 8.86545 15.1136C9.64955 15.1136 10.3086 14.929 10.8427 14.5597C11.3825 14.1847 11.7887 13.6392 12.0615 12.9233C12.3399 12.2017 12.4791 11.3182 12.4791 10.2727ZM28.6068 13.2727V5.90909H33.3114V19H28.8455V16.5114H28.7091C28.425 17.3466 27.9278 18 27.2176 18.4716C26.5074 18.9375 25.6636 19.1705 24.6864 19.1705C23.7716 19.1705 22.9705 18.9602 22.283 18.5398C21.6011 18.1193 21.0699 17.5398 20.6892 16.8011C20.3142 16.0625 20.1239 15.2159 20.1182 14.2614V5.90909H24.8227V13.2727C24.8284 13.9205 24.9932 14.429 25.317 14.7983C25.6466 15.1676 26.1068 15.3523 26.6977 15.3523C27.0898 15.3523 27.4278 15.2699 27.7119 15.1051C28.0017 14.9347 28.2233 14.696 28.3767 14.3892C28.5358 14.0767 28.6125 13.7045 28.6068 13.2727ZM36.1841 19V5.90909H40.8887V19H36.1841ZM38.5364 4.54545C37.9 4.54545 37.3546 4.33523 36.9 3.91477C36.4455 3.49432 36.2182 2.98864 36.2182 2.39773C36.2182 1.80682 36.4455 1.30114 36.9 0.880681C37.3546 0.460227 37.9 0.25 38.5364 0.25C39.1784 0.25 39.7239 0.460227 40.1728 0.880681C40.6273 1.30114 40.8546 1.80682 40.8546 2.39773C40.8546 2.98864 40.6273 3.49432 40.1728 3.91477C39.7239 4.33523 39.1784 4.54545 38.5364 4.54545ZM43.902 19V16.4091L49.6293 9.55682V9.48864H44.1066V5.90909H55.1861V8.77273L49.9702 15.3523V15.4205H55.3907V19H43.902ZM68.1994 19H63.0858L68.8471 1.54545H75.3244L81.0858 19H75.9721L72.154 6.35227H72.0176L68.1994 19ZM67.2449 12.1136H76.8585V15.6591H67.2449V12.1136ZM83.3151 23.9091V5.90909H87.9855V8.19318H88.0878C88.2582 7.75 88.5082 7.34375 88.8378 6.97443C89.1673 6.59943 89.5764 6.30114 90.0651 6.07954C90.5537 5.85227 91.1219 5.73864 91.7696 5.73864C92.6332 5.73864 93.4543 5.96875 94.2327 6.42898C95.0168 6.8892 95.6531 7.61364 96.1418 8.60227C96.6361 9.59091 96.8832 10.875 96.8832 12.4545C96.8832 13.9659 96.6474 15.2187 96.1758 16.2131C95.7099 17.2074 95.0849 17.9489 94.3008 18.4375C93.5224 18.9261 92.6673 19.1705 91.7355 19.1705C91.1219 19.1705 90.5736 19.071 90.0906 18.8722C89.6133 18.6676 89.2043 18.392 88.8633 18.0455C88.5281 17.6932 88.2696 17.2955 88.0878 16.8523H88.0196V23.9091H83.3151ZM87.9173 12.4545C87.9173 13.0909 87.9997 13.642 88.1645 14.108C88.3349 14.5682 88.5736 14.9261 88.8804 15.1818C89.1929 15.4318 89.5651 15.5568 89.9969 15.5568C90.4287 15.5568 90.7952 15.4347 91.0963 15.1903C91.4031 14.9403 91.6361 14.5852 91.7952 14.125C91.9599 13.6591 92.0423 13.1023 92.0423 12.4545C92.0423 11.8068 91.9599 11.2528 91.7952 10.7926C91.6361 10.3267 91.4031 9.97159 91.0963 9.72727C90.7952 9.47727 90.4287 9.35227 89.9969 9.35227C89.5651 9.35227 89.1929 9.47727 88.8804 9.72727C88.5736 9.97159 88.3349 10.3267 88.1645 10.7926C87.9997 11.2528 87.9173 11.8068 87.9173 12.4545ZM99.3341 23.9091V5.90909H104.005V8.19318H104.107C104.277 7.75 104.527 7.34375 104.857 6.97443C105.186 6.59943 105.595 6.30114 106.084 6.07954C106.573 5.85227 107.141 5.73864 107.789 5.73864C108.652 5.73864 109.473 5.96875 110.252 6.42898C111.036 6.8892 111.672 7.61364 112.161 8.60227C112.655 9.59091 112.902 10.875 112.902 12.4545C112.902 13.9659 112.667 15.2187 112.195 16.2131C111.729 17.2074 111.104 17.9489 110.32 18.4375C109.542 18.9261 108.686 19.1705 107.755 19.1705C107.141 19.1705 106.593 19.071 106.11 18.8722C105.632 18.6676 105.223 18.392 104.882 18.0455C104.547 17.6932 104.289 17.2955 104.107 16.8523H104.039V23.9091H99.3341ZM103.936 12.4545C103.936 13.0909 104.019 13.642 104.184 14.108C104.354 14.5682 104.593 14.9261 104.899 15.1818C105.212 15.4318 105.584 15.5568 106.016 15.5568C106.448 15.5568 106.814 15.4347 107.115 15.1903C107.422 14.9403 107.655 14.5852 107.814 14.125C107.979 13.6591 108.061 13.1023 108.061 12.4545C108.061 11.8068 107.979 11.2528 107.814 10.7926C107.655 10.3267 107.422 9.97159 107.115 9.72727C106.814 9.47727 106.448 9.35227 106.016 9.35227C105.584 9.35227 105.212 9.47727 104.899 9.72727C104.593 9.97159 104.354 10.3267 104.184 10.7926C104.019 11.2528 103.936 11.8068 103.936 12.4545Z" fill="#3A10E5"/>
</svg>
